<?xml version="1.0" encoding="UTF-8"?>
<svg id="Layer_1" xmlns="http://www.w3.org/2000/svg" version="1.1" viewBox="0 0 1920 1080">
 <g fill="#FFFFFF">
 <path d="M811.6,729.14c-22.09,1.49-47.8-2.53-61.97-21.28-11.95-15.82-13.69-38.54-4.81-56.33,15.98-32,73.76-38.06,106.38-42.18-.91-16.32-.09-51.49-20.68-53.12-7.74-.61-13.71,4.13-16.3,12.04l-6.11,18.66c-4.93,15.05-19.02,21.89-34.11,20.67-7.48-.61-14.49-2.91-18.95-7.81-14-15.37-4.88-42.35,18.48-55.25,30.11-16.63,82.48-16.5,113.37-1.33,47.98,23.57,28.95,82.11,36.29,135.93,2.09,15.34,18.91,12.32,21.75,20.71,8.7,25.7-44.5,36.9-67.81,25.32-8.32-4.14-12.21-12.78-15.34-21.8-13.39,15.85-30.48,24.46-50.18,25.78ZM854.22,632.7c-10.99-.55-20.69.82-29.54,5.61-12.61,6.82-16.57,20.15-14.99,33.9,1.43,12.49,10.25,21.48,22.37,21.51,28.7.06,21.82-40.76,22.16-61.02Z"/>
 <path d="M1401.8,679.17c-1.77-21.95,9.05-39.91,27.91-49.1,25.61-12.48,55.77-17.87,84.02-20.93-2.07-15.08-1.62-50.99-21.4-52.85-28.53-2.67-7.9,49.72-51,51.28-11.85.43-24.3-4.13-28.79-16.26-9.09-24.53,13.62-46.18,36.5-53.01,30.13-9,62.55-8.76,92,2.08,24.04,8.85,38.93,29.47,39.63,54.99l1.98,72.25c.21,7.7,1.32,15.68,5.99,21.84l14.26,6.46c6.74,8.2,3.23,19.84-5.65,24.23-21,11.65-67.35,17.91-74.78-16-21.53,27.12-63.96,31.72-92.8,17.87-16.89-8.11-26.35-23.86-27.88-42.87ZM1515.22,632.98c-7.22-.61-14.24.09-21.06,2.13-17.28,5.17-25.99,20.78-23.33,38.04,1.96,12.73,10.52,20.96,23.1,20.51,28.73-1.04,20.85-40.62,21.29-60.68Z"/>
 <path d="M1260.05,658.53c4.61,38.96-22.65,63.84-59.67,69.26-22.05,3.23-43.29.84-65.24-3.36-13.75-2.64-33.99,9.68-42.83-12.17-5.1-12.61-8.13-26.29-8.97-39.97-.68-11.13,7.07-16.47,17.1-17.13,24.48-1.62,17.91,20.71,39.37,37.13,14.05,10.76,33.87,14.48,50.39,8.54,5.53-1.99,6.82-9.71,6.73-14.19-.34-15.6-18.04-21.17-30.8-25.46-16.62-5.59-32.54-11.14-48.11-18.57-15.29-7.3-26.48-20-30.38-33.87-5.13-18.22-2.48-36.47,8.78-50.13,12.67-15.37,30.96-23.68,50.68-25.58,45.28-4.37,58.37,5.34,78.28,3.75,6.02-.48,11.32,1.61,14.12,7.16,5.7,11.27,10.06,23.25,12.96,35.63,2.64,11.29-5.68,20.1-16.52,21.21-15.64,1.6-17.67-9.71-30.93-28.26-14.37-20.1-45.56-20.36-51.49-7.6-8.24,17.76,12.89,30.86,28.16,36.53l47.6,17.69c16.92,6.29,28.68,21.56,30.79,39.37Z"/>
 <path d="M976.51,725.67c-7.74.03-13.74-2.56-16.24-8.42-7.48-17.53,16.88-19.42,16.89-43.69l.06-74.31c.02-19.24-21.71-12.94-21.13-29.75.22-6.31,4.76-11.86,11.39-13.98,22.1-7.07,43.3-13.39,66-19.13,2.52-.64,8.78.86,10.72,2.39,2.17,1.72,4.5,6.61,4.48,10.3l-.74,128.4c-.13,22.92,25.5,17.6,21.54,37.3-1.36,6.78-7.05,10.53-14.65,10.56l-78.33.34Z"/>
 <path d="M1290.66,724.06c-6.61.01-11.72-5.25-12.96-10.73-3.84-16.88,20.25-16.2,20.15-35.74l-.4-78.97c-.1-20.03-19.48-13.33-20.52-29.24-.33-4.98,3.46-11.55,9.18-13.26l48.91-14.64c7.27-2.18,14.93-3.86,22.43-4.58,7.18-.69,11.29,5.27,11.28,12.15l-.28,130.51c-.04,16.99,20.89,14.67,20.56,31.53-.09,4.66-3.76,12.76-10.21,12.77l-88.15.19Z"/>
 <path d="M1362.25,513.33c-15.57,14.9-39.13,16.71-56.76,5.98-18.94-11.54-23.39-34.25-11.16-52.54,7.64-11.42,21.13-17.81,33.77-18.39,14.73-.68,28.06,4.82,37.76,16.42,11.77,14.09,10.45,35.07-3.61,48.53Z"/>
 <path d="M1041.52,510.72c-15.27,17.26-41,20.17-59.77,8.21-19.43-12.37-22.88-37.3-8.49-54.55,13.04-15.62,33.56-19.69,52.21-12.04,11.07,4.54,19.79,12.82,22.81,22.6,3.9,12.64,2.32,25.52-6.76,35.77Z"/>
 </g>
 <g fill="#FFFFFF">
 <path d="M471.6,678.36c-18.78-3.24-37.07-13.68-52.49-24.84-21.99-15.91-38.31-39.64-42.26-66.62-8.51-58.09,9.17-103.97,58.52-135.57,17.63-11.29,36.51-16.58,57.8-17.09,22.95-.55,46.32,3.04,67.56,13.01,37.39,17.55,64.56,51.61,74.85,91.29,10.32,39.78-3.01,80.17-34.58,105.57-4.15,3.34-5.91,6.45-2.99,10.35,2.11,2.81,1.57,1.77,5.23,3.79,3.14,1.73,3.67,6.04,2.94,7.6l-1.34,3.95c-1.86,3.95,3.03,11.98,5.18,16.16,10.79,21.04,5.22,44.47-15.01,57.45-14.73,9.45-32.29,11.71-50.51,13.67-19.14,2.07-39.07-7.08-51.83-21.99-10.07-11.77-9.24-29.67-14.02-36.65-4.22-6.17-6.32-12.56-7.03-20.08ZM561.28,653.76c-.05-9.04,4.68-16.1,11.07-22.47l13-12.95c8.25-8.22,14.17-19.6,17.82-30.63,4.62-13.94,4.71-27.72.74-41.86-9.54-33.96-33.8-62.18-66.71-74.85-38.98-15.01-82.86-6.92-109.13,25.66-18.66,23.15-23.45,51.62-19.22,80.57,3.39,23.21,15.83,42.3,35.25,55.7,12.56,8.66,25.87,16.59,39.91,22.97,5.78,2.63,11.76,2.84,15.2,10.78l62.06-12.9ZM527.45,695.85l27.77-5.72c6.39-1.32,11.95-2.02,18.56-4.49-1.4-2.89-3.43-5.38-5.49-6.56l-44.58,10.01c-5.33,1.2-10.65,2.75-16.06,4.47-2.66,1.64,3.04,7.28,5.82,6.44,4.83-1.47,9.38-3.2,13.97-4.14ZM566.43,724.12c5.01-1.6,15.65-6,12.75-12.11-1.19-2.5-50.26,9.7-57.33,12.44,7.29,10.47,35.36,2.61,44.58-.33Z"/>
 <path d="M436.24,392.6c2.71,7.31,8.39,8.32,14.35,6.72,6.61-1.78,11.41-5.3,9.93-13.07-2.28-12-13.93-55.27-22.18-63.48l-5.23,3.61c-1.19.82-3.97-.7-5.61-.94-5.31,2.27-7.58,8.56-6.31,14.73,3.63,17.67,8.62,35.13,15.04,52.42Z"/>
 <path d="M356.04,458.76c7.05,5.03,13.57,6.31,20.33.54,2.03-1.73,4.92-4.4,5.32-6.51.47-2.53-1.36-8.09-3.42-9.61l-42.99-31.81c-3.18-2.35-11.19-4.9-14.88-3.21-8.74,4-7.21,16.25-.95,21.93,11.59,10.51,23.5,19.32,36.59,28.67Z"/>
 <path d="M554.89,398.81c-1.4,3.94,1.58,12.05,6.02,11.57,12.42-1.36,18.84-11.25,23.47-21.16,5.94-12.69,12.25-24.59,16.74-37.93,1.89-5.63-4.06-10.45-8.6-11.56-4.98-1.21-9.56,1.41-12.7,6.33-9.54,14.96-18.85,35.67-24.93,52.75Z"/>
 </g>
</svg>