<?xml version="1.0" encoding="UTF-8"?>
<svg id="Layer_1" xmlns="http://www.w3.org/2000/svg" version="1.1" viewBox="0 0 1920 1080">
  <!-- Generator: Adobe Illustrator 30.2.1, SVG Export Plug-In . SVG Version: 2.1.1 Build 1)  -->
  <g>
    <path d="M668.62,640.15c-15-2.58-29.61-10.93-41.92-19.84-17.56-12.71-30.6-31.66-33.75-53.21-6.79-46.39,7.32-83.03,46.73-108.26,14.08-9.01,29.16-13.24,46.16-13.65,18.33-.44,36.99,2.43,53.95,10.39,29.86,14.02,51.55,41.21,59.77,72.9,8.24,31.77-2.41,64.02-27.62,84.31-3.31,2.67-4.72,5.15-2.39,8.27,1.68,2.25,1.26,1.41,4.18,3.03,2.51,1.38,2.93,4.82,2.34,6.07l-1.07,3.15c-1.48,3.15,2.42,9.57,4.13,12.9,8.62,16.8,4.17,35.52-11.99,45.88-11.76,7.55-25.79,9.35-40.34,10.92-15.28,1.65-31.2-5.66-41.39-17.56-8.04-9.4-7.38-23.69-11.19-29.27-3.37-4.93-5.05-10.03-5.61-16.04ZM740.23,620.51c-.04-7.22,3.74-12.86,8.84-17.95l10.38-10.35c6.59-6.57,11.31-15.65,14.23-24.46,3.69-11.13,3.76-22.14.59-33.43-7.62-27.12-26.99-49.66-53.27-59.78-31.13-11.99-66.17-5.53-87.15,20.49-14.91,18.49-18.73,41.22-15.35,64.34,2.71,18.53,12.65,33.78,28.15,44.48,10.03,6.92,20.66,13.24,31.87,18.35,4.62,2.1,9.39,2.27,12.14,8.61l49.56-10.3ZM713.22,654.12l22.18-4.57c5.1-1.05,9.54-1.62,14.83-3.59-1.12-2.31-2.74-4.29-4.38-5.24l-35.6,7.99c-4.26.96-8.5,2.19-12.82,3.57-2.12,1.31,2.43,5.82,4.65,5.14,3.86-1.17,7.49-2.55,11.16-3.31ZM744.34,676.7c4-1.27,12.5-4.79,10.18-9.67-.95-2-40.14,7.75-45.78,9.93,5.83,8.37,28.24,2.09,35.6-.26Z"/>
    <path d="M640.37,411.94c2.17,5.84,6.7,6.65,11.46,5.37,5.28-1.42,9.11-4.23,7.93-10.44-1.82-9.58-11.12-44.14-17.71-50.69l-4.18,2.89c-.95.65-3.17-.56-4.48-.75-4.24,1.81-6.05,6.83-5.04,11.77,2.9,14.11,6.89,28.06,12.01,41.86Z"/>
    <path d="M576.33,464.78c5.63,4.02,10.84,5.04,16.24.43,1.62-1.39,3.93-3.51,4.25-5.2.37-2.02-1.09-6.46-2.73-7.68l-34.33-25.4c-2.54-1.88-8.93-3.91-11.88-2.57-6.98,3.19-5.76,12.98-.76,17.51,9.26,8.4,18.77,15.43,29.22,22.9Z"/>
    <path d="M735.13,416.9c-1.12,3.15,1.26,9.63,4.81,9.24,9.92-1.09,15.04-8.98,18.74-16.9,4.74-10.13,9.79-19.64,13.37-30.29,1.51-4.5-3.24-8.35-6.87-9.23-3.97-.97-7.64,1.13-10.14,5.06-7.62,11.94-15.06,28.49-19.91,42.13Z"/>
  </g>
  <g>
    <path d="M1256.12,716.76c-9.19-4.2-15.37,4.92-25.32,5.2-2.42.07-5.9-1.07-7.11-2.43-1.3-1.45-2.51-5.21-2.2-7.39,1.76-12.46,2.79-23.9,2.8-36.52v-76.47c0-11.69-11.26-8.62-11.61-17.89-.09-2.47,2.73-5.84,5.47-6.73l22.66-7.37c5.18-1.68,10.17-3.33,15.42-4.32,5.39.03,9.11,3.36,9.02,9.01l-.8,50.15c9.25-9.26,19.42-13.41,31.84-13.28,21.16.22,39.37,12.79,45.77,33.2,8.56,29.45-.33,60.51-29.42,74.65-17.83,8.66-38.46,8.47-56.53.21ZM1300.54,694.15c5.54-16.75,5.13-34.53-1.47-50.26-5.12-12.22-17.16-18.82-26.46-12.77-2.99,1.94-5.85,6.22-6.56,10.9-2.48,16.29-2.55,33.05.82,49.14,1.15,5.51,5.23,10.41,8.86,12.5,5.04,2.9,11.71,3.53,16.66.77,3.49-1.95,6.71-5.9,8.15-10.27Z"/>
    <path d="M1197.12,691.74c.02,13.5,14.53,9.47,12.49,19.89-.43,2.19-3.22,4.76-6.09,5.33-11.97,2.41-23.59,4.49-35.63,6.22-5.82.84-9.58-2.95-10.08-8.38l-.62-6.66c-13.56,15.5-35.32,18.02-52.9,11.75-13.6-4.85-22.69-17.07-22.81-31.73l-.36-43.35c-.1-11.7-13.55-7.93-12.88-17.84.24-3.61,2.77-6.05,6.42-7.12l31.69-9.29c6.07-1.78,15.9-1.73,15.87,5.13l-.27,66.22c-.04,11.01,6.95,17.84,17.73,17.73,7.51-.07,15.92-4.48,15.99-13.35l.31-41.62c.08-10.92-12.66-6.88-12.14-17.75.18-3.69,3.19-6.84,7.38-7.96l36.1-9.58c1.63-.43,5.41.46,6.8,1.29,1.54.92,2.9,4.31,2.9,6.7l.12,74.37Z"/>
    <path d="M901.72,551.2c-13.24.89-28.64-1.52-37.12-12.75-7.16-9.48-8.2-23.09-2.88-33.75,9.57-19.17,44.18-22.8,63.73-25.27-.55-9.77-.05-30.84-12.39-31.82-4.64-.37-8.21,2.47-9.77,7.21l-3.66,11.18c-2.95,9.01-11.4,13.11-20.43,12.38-4.48-.36-8.68-1.74-11.35-4.68-8.39-9.21-2.92-25.37,11.07-33.1,18.04-9.96,49.41-9.88,67.91-.8,28.74,14.12,17.34,49.19,21.74,81.43,1.25,9.19,11.33,7.38,13.03,12.41,5.21,15.4-26.66,22.11-40.62,15.17-4.99-2.48-7.31-7.65-9.19-13.06-8.02,9.5-18.26,14.65-30.06,15.45ZM927.25,493.43c-6.58-.33-12.4.49-17.7,3.36-7.55,4.09-9.92,12.07-8.98,20.31.85,7.48,6.14,12.87,13.4,12.88,17.2.03,13.07-24.41,13.28-36.55Z"/>
    <path d="M1255.28,521.27c-1.06-13.15,5.42-23.91,16.72-29.41,15.34-7.48,33.41-10.7,50.33-12.54-1.24-9.03-.97-30.55-12.82-31.66-17.09-1.6-4.73,29.78-30.55,30.72-7.1.26-14.55-2.48-17.25-9.74-5.45-14.7,8.16-27.66,21.86-31.75,18.05-5.39,37.47-5.25,55.11,1.24,14.4,5.3,23.32,17.65,23.74,32.94l1.19,43.28c.13,4.61.79,9.39,3.59,13.08l8.54,3.87c4.04,4.91,1.93,11.88-3.38,14.52-12.58,6.98-40.35,10.73-44.8-9.58-12.89,16.24-38.31,19-55.59,10.71-10.12-4.86-15.78-14.3-16.7-25.68ZM1323.22,493.6c-4.32-.37-8.53.05-12.62,1.27-10.35,3.1-15.57,12.45-13.97,22.79,1.18,7.62,6.3,12.56,13.84,12.29,17.21-.63,12.49-24.33,12.75-36.35Z"/>
    <path d="M1170.36,508.91c2.76,23.34-13.57,38.24-35.75,41.49-13.21,1.93-25.93.51-39.08-2.01-8.23-1.58-20.36,5.8-25.66-7.29-3.06-7.55-4.87-15.75-5.37-23.94-.41-6.67,4.23-9.87,10.24-10.26,14.67-.97,10.73,12.4,23.58,22.24,8.42,6.44,20.29,8.67,30.19,5.12,3.31-1.19,4.09-5.81,4.03-8.5-.2-9.35-10.8-12.68-18.45-15.25-9.95-3.35-19.49-6.67-28.82-11.13-9.16-4.37-15.86-11.98-18.2-20.29-3.07-10.91-1.49-21.84,5.26-30.03,7.59-9.21,18.55-14.19,30.36-15.33,27.12-2.62,34.97,3.2,46.89,2.25,3.61-.29,6.78.96,8.46,4.29,3.41,6.75,6.02,13.92,7.76,21.34,1.58,6.76-3.4,12.04-9.9,12.71-9.37.96-10.59-5.82-18.53-16.93-8.61-12.04-27.3-12.2-30.84-4.55-4.93,10.64,7.72,18.49,16.87,21.89l28.51,10.6c10.13,3.77,17.18,12.91,18.44,23.59Z"/>
    <path d="M925.02,647.41c-1.49,16.96,1.43,36.76,18.63,44.56,13.12,5.96,28.16,3.26,39.12-6.16,2.54-2.19,6.18-4.57,9.15-4.97,12.46-1.67,1.03,41.16-46.54,42.46-18.64.51-36.15-6.09-48.53-20.05-12.74-14.38-15.85-37.11-10.85-55.18,5.6-20.23,22.69-35.12,43.46-38.39,18.44-2.9,44-1.07,57.02,13.97,6.81,7.86,9.41,19.99,3.11,28.85-6.39,8.98-20.8,9.63-28.72,2.38-10.08-9.23-2.53-32.18-20.46-31.43-10.08.43-14.57,14.67-15.39,23.96Z"/>
    <path d="M1011.74,720.32c-3.43,0-6.8-3.31-7.59-5.48-3.12-8.64,10.51-8.84,10.55-22.81l.21-91.91c.03-13.43-11.89-8.45-11.49-18.82.09-2.42,2.66-5.84,5.65-6.81l31.89-10.33c3.15-1.02,7.58-1.04,10.76-.1,2.96.87,4.12,4.69,4.12,7.79v120.77c-.01,14.84,14.57,10.22,12.49,21.72-.6,3.32-3.84,6-8.12,6l-48.47-.02Z"/>
    <path d="M1000.51,549.13c-4.64.02-8.23-1.53-9.73-5.04-4.48-10.5,10.11-11.63,10.12-26.17l.04-44.51c0-11.52-13.01-7.75-12.66-17.82.13-3.78,2.85-7.1,6.83-8.37,13.24-4.24,25.94-8.02,39.54-11.46,1.51-.38,5.26.52,6.42,1.43,1.3,1.03,2.7,3.96,2.68,6.17l-.45,76.92c-.08,13.73,15.27,10.55,12.9,22.34-.82,4.06-4.22,6.31-8.77,6.33l-46.92.2Z"/>
    <path d="M1188.7,548.16c-3.96,0-7.02-3.14-7.77-6.43-2.3-10.11,12.13-9.71,12.07-21.41l-.24-47.3c-.06-12-11.67-7.98-12.29-17.52-.19-2.98,2.07-6.92,5.5-7.94l29.3-8.77c4.36-1.3,8.95-2.31,13.44-2.74s6.77,3.16,6.76,7.28l-.17,78.18c-.02,10.18,12.52,8.79,12.32,18.89-.05,2.79-2.26,7.64-6.12,7.65l-52.81.11Z"/>
    <path d="M1231.58,421.92c-9.33,8.93-23.44,10.01-34,3.58-11.35-6.91-14.01-20.52-6.69-31.47,4.57-6.84,12.66-10.67,20.23-11.02,8.83-.41,16.81,2.89,22.62,9.84,7.05,8.44,6.26,21.01-2.16,29.07Z"/>
    <path d="M1039.45,420.36c-9.15,10.34-24.56,12.08-35.81,4.92-11.64-7.41-13.71-22.35-5.09-32.68,7.81-9.36,20.1-11.79,31.28-7.21,6.63,2.72,11.85,7.68,13.66,13.54,2.34,7.57,1.39,15.29-4.05,21.43Z"/>
  </g>
</svg>