<?xml version="1.0" encoding="UTF-8"?>
<svg xmlns="http://www.w3.org/2000/svg" viewBox="1400 380 320 320" width="320" height="320">
 <g>
 <path d="M1542.4,632.99v-1.18c0-.85-1.13-.61-4.18-2.37-2.34-1.35-4.79-2.62-7.09-4.25l-11.43-8.13c-1.2-.85-2.31-1.89-3.59-2.59s-2.62-1.39-3.8-2.12l-5.58-3.41c-4.11-2.51-8.88-5.95-12.75-8.6-.35-.24-.41-1.83-.83-1.92l-1.62-.35.42-1.27c.07-.21-1.05.04-.7-.07-.19-.82-.44-1.64-.73-2.49l1.38-3.91,1.37-4.1c1.64-4.9,4.65-10.92,7.03-14.88.18-.29-.01-1.33-.19-1.27l-.78.27c.35-1.96-3.46-4.59-4.41-6.67-.1-.21-.77.28-1.01.31l-8.97,1.36c-2.32.35-4.41.91-6.73,1.21l-7.94,1c-1.88.24-4.02.52-5.87.35-1.32-.12-1.8-.35-3,.23-1.5.73-3.82-.21-5.31.04-2.43.41-4.26.66-6.6-.52-1.67-.84-3.1-1.93-3.93-3.74l.94-2.13c-.87-1.27-1.19-2.59-.7-3.93l1.9-5.27,4.25-11.7,3.39-7.27c.96-2.05,1.63-3.99,2.66-6.02l4.03-7.92c1.47-2.89,2.79-5.87,4.46-8.65l2.94-4.89c1.25-2.08,2.75-4.26,4.36-6.08l2.47-2.8c2.82-3.19,7.33-4,11.24-5.12,1.94-.56,3.73-1.27,5.74-1.66,5.51-1.06,10.97-1.89,16.58-2.36l5.96-.5,6.53-.45c1.68-.11,1.31-1.44,1.92-2.32l12.12-17.62c2-2.91,3.94-5.74,6.32-8.31l13.61-14.69c2.3-2.48,4.62-4.62,7.13-6.93,1.47-1.36,2.81-3.11,4.41-4.27l5.71-4.13c1.47-1.06,3.38-1.88,4.49-3.38.97-1.31,2.46-2.49,3.82-2.77l.11-.68c.02-.15.23-.55.35-.44l.58.51c1.27-2.04,1.42-1.65,4.76-3.71,2.09-1.29,4.58-2.23,6.49-3.78,2.46-2,4.96-3.3,7.71-4.84,5.55-3.1,10.33-5.92,16.52-7.92,1.47-.48,3.11-1.6,4.52-1.89l4.5-.91c.89-.18,2.16-.62,2.94-.7,2.06-.2,3.68-.63,5.53-1.4l2.1-.88.44.12c.14.04.64.11.55-.02l-.59-.86,2.15-.4-.04,1.04,4.7-1.59-1.57-1.01c3.63,1.37,2.71-2.6,6.05-.45l-.18-.86c-.04-.19.49-.29.78-.35l10.53-2.14c3.03-.62,6.31-.58,9.29.3l4.35,1.29-1.88.5c.61.05,1.57-.08,2.38-.17,3.8-.39,8.35,8.66,9.05,12.88l1.1,6.69c.25,1.51.82,2.72.98,4.19.99,8.67.23,10.96.35,19.31.05,3.47-.65,7.57-1.06,11.02-.05.44.36,1.64.37,1.7-.47.38-.81.93-.9,1.52l-1.18,8.34c-.21,1.48-1.11,3.54-.42,4.48,1.4,1.72.29,4.02-.72,5.85.45.74.26,1.92-.01,2.87l.04,2.61c-.77,0-1.39-.06-1.44.18l-.21,1.08c-.04.23.89.14.82.18l-.31,2.75c-1.93.93-1.79,2.6-1.57,5.07-.02.03-.53-.03-.62.2l-.43,1.11.86-.39c.1-.04-.04.61-.15.64l-.52.14c-2.74,4.26-.14,7.21-1.66,8.22-.89.6-1.29,1.11-1.53,2.06l1.37-1.4c-.38,1.11-1.06,1.84-1.97,2.86l1.08-.31-3.34,9.33c-.52,1.45-1.09,2.52-1.82,3.71l-1.52,2.48,1.15-.82c-.84,1.49-1.28,2.54-1.9,3.87l-4.24,9.04-2.09,5.43c-.12.3-1.54-.61-1.13.03.07.1.45.59.39.7l-1.51,3.01c-.66,1.32-1.41,2.57-2.18,3.82l-3.86,6.22-6.45,10.11c-1.72,2.69-3.27,5.3-5.19,7.74l-5.9,7.49c-.79,1.4.84,3.22,1.34,4.52,1.81,4.7,2.96,9.38,4.1,14.26l1.93,8.33,1.41,6.96.54,3.62c.48,3.25,1.29,6.64-.32,9.72-1.83,3.52-2.89,4.63-5.57,7.58l-5.47,6.01-6.03,6.96c-.92,1.06-1.9,2.24-2.82,3.19l-4.88,5.04-3.05,3.15-6.05,5.9c-1.4,1.36-2.74,2.63-4.28,3.8l-3.27,2.48c-2.48,1.88-4.77,3.36-7.51,4.48-1.76.72-2.73.69-4.4.46-1.48-.21-2.95-.13-4.35-.89-1.48-.8-1.67-2.38-2.13-4.09-1.12-4.14-2.63-8.13-3.31-12.33l-1.01-6.25-3.7-17.13.53-2.54c-.93-.39-1.92-.18-2.76.36l-.72-1.12c-.18-.28-1.03.14-1.6.42,0,.02-.1-.45-.12-.55-.02-.09,0-.08-.73.39l-2-1.34c-.57-.39-1.29-.6-1.96-.68l.28-.51c.06-.1-.16-.44-.25-.37l-.89.71c0,.14-.01-.36-.03-1.1-2.45,2.46-5.45,4.68-7.86,7.46-2.82,3.26-5.15,6.62-8.38,9.49-1.06.94-2.41.89-3.75.59-1.44-.33-2.99.1-3.98-1.58l2.74.72c-.76-.78-1.73-1.32-2.56-1.64l-1.37.98Z"/>
 <path d="M1472.85,675.94l-.78.55c-.12.09-.52-.08-.45-.21l.33-.59c.1-.19.27-.49.26-.45s-.31-.4-.39-.52-.38.42-.44.56l-.28,2.01c-.88-1.05-.37-2.04-.47-3.2-.34-4.02,2.01-7.56,3.86-11.34l-.31-1.13c-.09-.34,1.1-.76,1.57-.97l-1.07-1.2c.6.05,1.38.24,1.38-.03v-1.22c0-.11-.2-.61-.23-.72s.1-.15.2-.13l.98.21-.68-1.01,2.62-5.24,3.31-5.67c3.73-6.39,10.16-16.38,17.05-20.13.84-.46,8.32-2.85,7.54-.88l-.45,1.15,1.83-1.23-.38,2.12,1.49-1.07-.5,2.24,1.35-1.03c1.22,3.62,2.11,3.56.43,8.24-2.74,7.62-3.59,8.93-6.63,15-.75,1.49-1.39,3.45-2.38,4.79-2.68,3.62-5.08,7.04-7.56,10.76-1.07,1.61-2.54,3.15-3.93,4.52-4.68,4.6-4.81,6.28-11.49,8.68-1.22.44,1.58,2.8-6.31,2.11.42-.93,1.01-2.03.54-2.29-.12-.07-.43.33-.53.43s-.53-.16-.65-.27c-.14-.12.24-.5.31-.67l.87-2.17Z"/>
 <path d="M1516.91,683.45c-1.66,1.01-3.96-.26-3.98.05l.08-.94.06-.67c.01-.17-.58-.1-.69.03l-.62.71.24-1.57c-1.14-3.07.05-9.91.83-13.19l.49-2.04c.31-1.31.73-2.66,1.21-4.12l1.1-3.32c1.01-3.06,1.65-6.13,2.45-9.29.26-1.02.24-1.91.28-2.99.1-2.72,1.37-5.93,3.49-7.91,1.01-.94,2.77-1.69,4.05-2.22,2.32-.96,6.25,2.2,6.91,3.24l3.18,4.94-1.24-.56.68,2.22.83-.04c.81-.04.65,3.27.21,5.19l-1.71,7.6c-.35,1.57-.86,3.04-1.44,4.52l-2.68,6.89c-1.14,2.91-1.88,5.6-3.99,8.13-1.94,2.32-3.97,4.35-6.82,5.09.11.68.19.98.05.86l-.83-.66c-.14-.11.11-.28.43-.8-.74,0-1.64.3-2.57.87Z"/>
 <path d="M1455.83,631.71l-.47-2c.48-.75.58-.81.61.35l1.4-2.1c.07-.11-.5-.7-.55-.82-.05-.13.02-.2.14-.2.14,0,.94.28,1.02.17l2.29-3.09-2.43,1.91c.59-.83,1.38-2.04,2.1-2.72l3.72-3.51c4.78-4.51,1.73-2.8,8.28-6.38,2.63-1.44,5.38-2.01,8.18-3.07l3.45-1.31c1.67-.64,10.58-2.61,12.59.16,1.46,2.02,1.81,5.47.56,7.7s-3.74,3.78-5.99,4.85c-3.9,1.86-7.49,3.69-11.21,5.89-1.28.75-2.62,1.18-4.03,1.7-1.27.46-2.64,2.08-3.86,2.45-4.22,1.29-5.72,3.68-8.94,4.54l-5.73,1.53-1.79-1.47,1.53.1-2.51-2.32,1.14.29.1-2.39c-1-.79-.83-.95.41-.25Z"/>
 <path d="M1576.5,510.21c-1.47-2.8-3.35-5.08-3.76-8.17l-.85-6.43c-.87-6.53,3.13-15.76,7.43-20.14,2.25-2.29,4.79-4.58,7.45-6.37l3.84-2.58c2.72-1.83,5.95-2.73,9.25-3.21,2.24-.33,4.62.56,6.8.89,1.11.16,2.2.32,3.25.73l6,2.33c2.04.79,3.74,1.48,5.43,2.92,6.8,5.79,12.31,16.04,12.34,25.18-3.45,4.79,1.65,3.59-3.43,13.25-4.78,9.09-13.56,14.44-23.45,16.74l-3.11.72c-5.44,1.27-11.32-.9-15.85-3.42-5.14-2.86-8.56-7.12-11.34-12.44ZM1588.96,493.17c-.56,4.96,1.58,10.92,6.15,13.57,6.49,3.76,15.05,1.45,19.45-4.15,4.11-5.23,4.39-11.57.57-16.96-1.4-1.97-4.06-4.41-6.65-4.78-2.98-.43-6.12-.25-8.87-.26l-4.03,2.3c-1.88,1.07-3.51,2.7-4.17,4.45-.98,2.59-1.81.34-2.43,5.83Z"/>
 </g>
</svg>