<?xml version="1.0" encoding="UTF-8"?>
<svg xmlns="http://www.w3.org/2000/svg" viewBox="200 450 400 250" width="400" height="250">
 <path d="M239.42,631.61c-1.86-1.24-.38-3.38.77-4.37,2.24-1.94,4.55-2.91,7.65-2.93l5.95-.03,18.61.74,37.75,1.85c4.56.22,8.83,1.01,13.37,1.65,3.98.56,7.76,1.16,11.64,2.3,1.24.37,2.54.55,3.86.37l-12.9-3.92c-1.49-.45-2.33-1.15-4.02-1.53-14.72-3.34-29.37-5.41-44.37-6.69-3.75-.32-6.85-.28-10.54-.1l-13.78.69c-7.31.37-10.72,2.44-14.87-5.95l.49-.87c-.18.32-3.32-4.9-3.57-6.68-.71-5-.33-9.86.03-14.8.35-4.87-.01-9.53-.07-14.49-.02-2.19.42-4.54.47-6.73l.1-4.94.14-8.16.1-11.59v-4.38s.01-9.94.01-9.94c0-4.44-.2-8.56-.3-12.97l-.14-6.04-.04-14.69.2-9.89.66-11.13.02-6.65.11-6.48c.08-4.55,1.86-7.41,5.73-9.95,1.37-.9,2.65-2.45,4.68-2.82,2.98-.54,5.86-.21,8.85-.14l7.41.18c7.88.19,15.37,1.46,23.08,2.99l12.65,2.5,10.4,2.48c4.33,1.03,8.36,2.34,12.5,3.91,2.25.85,4.56,1.46,6.71,2.46,4.93,2.31,9.79,4.38,14.44,7.12.78.46,1.49,1.26,2.4,1.53,1.65.49,3.03,1.21,4.53,1.98,8.62,4.42,12.55,6.98,20.21,12.93,3.52,2.73,9.61,7.06,11.63,11.29l4.46-5.34c2.75-3.29,5.91-5.9,9.38-8.42,3.86-2.80,7.53-5.76,11.56-8.27l7.7-4.8c3.52-2.2,7.02-4.42,10.76-6.14l12.13-5.58,3.26-1c12.21-3.73,17.72-6.64,31.64-7.85,3.18-.28,8.74-1.76,12.99-2.13l20.2-1.76c2.96-.26,5.36-1.02,8.33.21l4.47,1.86c.48.2,1.47,1.24,1.47,1.71,0,.54-.29,1.23-.52,1.74,2.9,2.22,1.24,4.86,2.78,9.77.21.68,1.2,1.92,1.37,2.57.96,3.82.57,7.34.42,11.21l-.69,18.85-.92,24.8-.15,19.87.34,6.45.23,13.47c.63-3.14.62-6.04.9-9.05.32-3.4.18-6.59.41-10.03l.63-9.44.39-9.52.23-7.79c.14-4.57.16-8.91.53-13.45.31-3.74.3-7.37.36-11.23.06-4.23.93-8.36,1.52-12.56.55-3.97,4.72-2.98,6.51-4.41,7.43,2.31,5.55,9.34,5.5,15.9l-.04,5.8-.27,6.56-.45,13.37-.16,9.8-.66,15.59-.1,15.74-.3,7.67c-.13,3.39-.55,6.56-.41,9.94.36,8.56-.55,13.76-.53,22.49.03,8.45.61,16.58-.15,24.99-.2,2.18-1.27,4.59-1.92,6.49-.99,2.88-3.04,4.09-5.32,5.43-4.53,2.68-8.87,1.76-13.76,1.51-4.7-.24-9.53-.13-14.15.08l-15.63.72c-5.28.24-10.42.6-15.6,1.22l-14.43,1.72-19.65,2.38c-6.43.78-12.62,1.80-18.95,3.04l-5.58,1.09c-2.47.48-4.96.98-7.54,1.03-9.38,7.16-15.82,10.36-27.97,8.83-2.18-.27-3.92-.57-5.87-1.52-1.68-.82-3.39-1.51-4.9-2.65l-4.14-3.11-19.22-2.4-16.86-1.8-9.91-.78c-1.86-.15-3.55-.45-5.38-.59l-19.79-1.53c-4.33-.34-8.36-.51-12.57-.55l-21.45-.19c-3.85-.03-7.44-.11-11.31.13-.46.03-1.25-.05-1.38-.36l-.66-1.5c-1.99-.62-5.24-2.86-3.74-5.58l4.59-.47-4.54-.36ZM409.49,615.33c2.88-.8,5.14-1.93,7.73-2.87l6.95-2.53c2.28-.83,4.72-1.25,6.9-2.23,2.59-1.16,5.02-2.06,7.79-2.66,3.04-.66,7.74-2.3,10.08-2.72l16.16-2.96c4.32-.79,8.56-1.58,12.95-2.15l10.39-1.35c9.58-1.24,10.48.14,18.88-.45-.25-2.95-.17-5.7-.08-8.67l.16-5.36-.17-12.68.13-18.09.06-11.73-.19-5.72-.14-8.27c-.05-3.12.19-6.13.24-9.34l.15-10.79-.29-2.24c-.41-3.14.19-6.64.14-9.85l-.16-9.1c-.06-3.54.23-7.23-.3-10.68l-1.39-9.1c-6.69-1.55-36.34,3.01-42.1,4.75l-12.1,3.66c-3.4,1.03-6.17,2.18-9.35,3.67l-10.38,4.86c-1.29.6-2.4,1.35-3.68,1.93l-5,2.27c-1.63.74-3.24,1.62-4.65,2.73-2.28,1.81-9.59,5.56-11.14,7.01l-3.11,2.9-5.6,4.32c-1.17.91-2.29,1.35-3.28,2.47-1.51,1.73-4.17,3.24-5.19,5.36-.59,2.19-.58,5.02-.66,7.33-.17,4.77-.81,9.38-.73,14.09l.25,13.76.02,4.34-.42,20.31-.17,25.5-.2,6.89-.5,19.42-.27,6.6,6.21-4.06c3.45-2.26,12.25-7.52,16.06-8.58ZM372.63,628.82c.16-2.86.22-5.36.23-7.99v-12.72s-.05-3.56-.05-3.56l.21-18.58.02-4.32.37-18.57.1-6.9.25-4.41.15-6.84c.08-3.94.4-8.02.09-11.87-.81-9.98.24-13.2.15-22.52-8.11-10.64-20.71-15.99-25.36-19.4l-2.99-2.2-9.6-4.65-5.12-2.31-10.05-3.79c-5.25-1.98-10.25-4.02-15.63-5.65-3.91-1.19-7.71-2.5-11.74-3.28l-10.55-2.03c-2.82-.54-5.51-1.39-8.49-1.37l-12.09.05c-3.18.01-5.87.06-9.06.91-.93,8.16-.97,15.9-.77,24.08l.1,3.99.35,9.88.19,6.1v10.91c-.01,2.81.13,5.58,0,8.38l-.21,4.53c-.18,3.84.35,7.61.13,11.55l-.64,11.68-.1,31.06c0,1.74-.03,3.30.14,5.16l5.62-.05c8.13-.07,15.97,1.12,24.07,2.3,10.3,1.51,20.25,3.06,30.29,5.88l7.87,2.2,6.64,1.77,3.92,1.11c1.82.52,3.55,1.59,5.33,2.35,2.87,1.23,6.07,1.84,8.85,3.26l10.31,5.26,7.6,4.1c3.42,1.84,6.11,3.9,9.52,6.52ZM245.72,533.19l-.07,10.09c1.13,1.34.8-10.87.07-10.09ZM380.17,552.62c.52-4.45.43-8.21.01-12.05-.25,4.25-.25,8.19-.01,12.05ZM522.71,601.56l-.07-2.63c-.1-3.87-.17-7.68.15-11.46.23-2.72.3-5.23.07-8.02-.22,1.42-.45,2.93-.53,4.37l-.34,6.44c-.13,2.41-.73,9.72.73,11.31ZM432.6,627.15c2.25-.04,4.39-.37,6.67-.97,4.9-1.28,9.68-1.96,14.59-2.93l3.57-.7,11.6-1.13,11.98-1.02,10.05-.46c6.92-.32,5.87-.63,13.83-.6l6.21.02,9.16.03c.53,0,1.45-.18,1.8-.44.28-.2.52-1.12.51-1.49l-.23-13.21-2.46,7.22c-.46,1.34-.67,2.6-.88,4.28l-5.06.04c-8.9.07-25.74.61-34.14,1.77l-12.48,1.73-5.68,1.06-4.75.87-4.89.83-8.2,1.69c-2.54.52-8.42,2.02-11.19,3.43ZM282.18,606.98c-4.26-.87-14.31-2.14-17.15-1.82-.15.02.63.55.78.56l6.54.49c3.54.27,6.86.82,9.83.77ZM475.69,610.11l10.46-1.01,5.36-.47c-2.36-.22-4.83-.35-7.35-.1l-3.51.34-10.81,1.29c-4.02.48-7.85,1.23-11.69,1.94,1.93.47,3.61-.15,5.49-.4l12.05-1.6ZM255.1,614.7l-10.4-.16c1.02.91,1.97.62,3.2.55l7.21-.39Z"/>
</svg>