<?xml version="1.0" encoding="UTF-8"?>
<svg xmlns="http://www.w3.org/2000/svg" viewBox="850 400 300 300" width="300" height="300">
 <g>
 <path d="M1016.71,643.57c-5.21-.3-11.29-2.95-15.52-5.81-2.69-1.81-5.39-3.36-7.82-5.47l-7.52-6.52c-1.37,2.74-3.25,5.36-5.44,7.52-.42.41-.88,1.46-1.39,1.92-2.43,2.14-4.7,4.37-7.36,6.13l-5.22,3.44c-2.64,1.74-7.83,2.56-10.97,2.33-5.22-.38-7.95-3.1-11.3-6.75-1.47-1.6-2.2-3.98-2.91-6.12-.82-1.02-4.29.34-8.07-.4-8.06-1.59-12.35-8.6-12.76-16.75-2.51,1.51-7.35.79-10.42,0-3.65-.94-7-3.11-9.23-6.17-2.98-4.10-2.32-7.19-3.55-11.37-5.93.04-10.71-3.29-14.19-7.79-2.78-3.60-3.63-7.55-3.16-12.09.24-2.27.4-4.30,1.26-6.57-1.08-1.23-2.61-1.91-4.18-2.51l-8.23-3.16-11.97-4.27-3.4-1.24-7.25-2.69c-1.54-.57-3.06-.95-4.76-1.37l-2.19-2.02c-.14-.12-.42-.52-.51-.65s.47-.11.87-.13l-.2-.97c-.05-.24-.99-.13-1.16-.3-2.89-2.83-1.17-10.51-.12-14.43,1.13-4.23,2.05-8.39,3.51-12.60l4.06-11.71,3.51-9.26.53-1.83c.55-1.90,1.09-3.58,1.74-5.44l1.68-4.82c.46-1.32.72-2.62,1.24-3.86l2.73-6.53c2.14-5.11,2.15-7.87,6.65-12.78,2.02-2.20,4.29-.60,7.5-1.43l-2.14-.91c2.09-.44,3.92,0,5.98.65l25.57,8.06c2.51.79,4.77,1.44,7.34,1.97l13.24,2.77,3.78-1.71c4.41-2,8.65-4.13,12.98-6.38l8.94-4.64,14.7-7.81c5.19-2.76,10.19-5.39,16.25-5.87s11.94,1.41,16.88,5.06c6.27-2.57,13.18-1.02,19.2,2.65l9.63,5.87,5.33,2.94,12.03,6.84c1.75,1,3.44,2.10,5.28,2.90s3.58,1.60,5.45,2.54c1.25.62,2.91,2.32,4.47,2.16,3.49-.39,6.51-2.21,9.75-3.36l9-3.20,3.98-1.54,8.09-3.31c6.62-2.71,11.09-4.69,18.16-6.33.9.1,2.67.44,3.48.63l1.63,2.45c1.24-.06,2.25.39,3,1.28l.38.45c.07.08.02.43-.08.44l-.97.09c2.53,1.39,3.35,3.62,4.19,6.29l4.72,14.86,2.24,7.78c1.32,4.60,2.74,8.90,4.07,13.48l2.01,6.93,4.22,14.12c.76,2.55,1.22,4.94,1.91,7.50l1.41,5.25c.04.14.12.63.14.75.03.17-.55.32-.64.18l-.42-.71-.14,1.26c-.03.30.56.46,1.17.85-.01.84-.43,2.10-.9,3.06l-.32.64c-.04.09-.29.22-.33.13l-.38-.78c-.41.68-.85,1.25-1.58,1.94l-.93,2.11-12.72,5.05c-2.31.92-4.84,1.29-7.08,2.42-1.47.74-3.17.85-4.59,1.38l-3.69,1.38-14.07,4.95-2.92,1.09-1.57,1.60c2.73,6.20,2.37,17.08-2.27,22.41-.93,1.07-1.14,1-2.34,1.60,2.81-1.38-5.82,8.02-16.92,6.09-.04,2.81-.42,5.47-1.69,7.75-.75,1.35-1.42,2.88-2.53,4.01-4.29,4.35-8.36,6.36-14.48,6.80-1.69.12-3.47-.49-5.35-.62-.04,6.84-3.60,12.21-9.33,15.45-2.72,1.53-5.71,2.69-9,3.05-1.76.19-3.75-.14-5.65-.25ZM987.17,577.21l.71-3.33c.36.36.67.79.76.64l.37-.63c.40-.68,1.52-2.20,2.35-1.90,1.50.53,2.92.90,4.46.98l14.18,12.70,4.94,4.70,4.48,4.13,4.30,3.48,2.84,2.32c3.39,2.76,6.66,5.41,10.29,7.93,2.01,1.40,4.63,2.14,7.11,2.24,2.62.11,5.52-1.65,5.70-4.37.20-2.99-1.61-5.76-3.69-7.76l-8.96-8.59c-1.22-1.17-2.79-2.21-4.09-3.38l-7.55-6.78c-1.60-1.44-3.15-3.13-4.52-4.62-2.02-1.49-5.38-4.62-7.39-6.72l-7.85-8.16c-1.63-1.70-1.80-3.75-1.85-5.83s.45-3.81,2.32-4.21c-.06-.66,1.20-1.30,1.92-1.38l.18-.80c.07-.32,4.86,1.06,7.22,3.14l10.24,9.01,10.66,9.73,13.56,12.23c3.21,2.90,6.29,5.57,9.95,7.92,2.93,1.88,9.58,3.93,12.01.09,1.21-3.15.28-6.87-1.91-9.44-3.07-3.61-6.15-6.88-9.53-10.18l-7.98-7.78-6.23-6.27-8.12-8.03-14.15-13.40c-3.55-3.36-6.82-6.62-10.59-9.75l-10.78-8.96-4.37,5.49c-3.98,5-9.19,9.22-14.79,12.37-2.17,1.22-4.32,2.66-6.74,3.24-4.88,1.18-7.95,2.24-12.78.91-5.07-1.39-9.08-4.25-12.12-8.39-.43-.58-.57-1.85-.87-2.38-2.42-3.81-1.99-9.36-.15-13.53,1-2.28,1.89-4.67,3.27-6.71l6.77-10.02c1.31-1.95,2.69-3.76,4.14-5.57l9.40-11.72c1.91-2.38,3.95-4.23,5.81-7-3.26.86-5.99,1.69-8.71,3.01l-6.30,3.07-9.90,5.06-2.85,1.53-5.83,2.74c-1.50.70-2.67,1.64-4.24,2.18-1.28.44-2.39,1.26-3.62,1.77l-6.56,2.74c-1.31.55-2.45.99-3.74,1.33l-3.38.88c-1.11.29-2.40.72-3.47.62-1.20-.11-2.69.01-3.75-.20l-6.52-1.32c-1.01-.21-3.55-1.29-5.23-1.77l-7.60-2.17-3.90-1.03-5.34-1.62-11.38-3.71c-1.38-.45-2.59-1.21-4.40-1.38-1.02,1.33-1.15,3.23-1.72,5.11l-2.17,7.21c-.07.22-.76.56-.65.70.08.10.33.42.30.39l-1.17.91c-.22.17.05.81.11,1.12l-1.74,5.71-2.49,7.61-1.25,4.03c-1,3.23-2.19,6.28-3.31,9.47l-1.39,3.97-4.33,13c.68.79,1.82,1.22,2.82,1.59l14.43,5.33c7.07,2.61,13.94,5,20.81,8.56l11.75-11.58c5.95-5.86,16.14-10.63,23.82-4.52,4,3.19,6.30,7.51,6.77,12.54,3.30-1.36,6.26-1.21,9.36-.35,8.81,2.42,12.62,9.50,13,18.57,7.65-1.41,12.42.53,16.91,6.67,3.14,4.30,3.34,9.83,2,14.99,2.91,1.21,6.14,2.15,8.14,4.47.82.95,1.58,1.43,2.46,2.28l11.08,10.68,3.81,3.37c4.94,4.37,18.03,17.08,24.35,9.31l.39-4.64c-1.73-3.51-4.20-6.20-7.13-8.69-2.35-1.99-4.43-4.06-6.68-6.19l-3.70-3.52c-6-5.70-12.04-11.14-17.76-17.15-1.66-1.75-2.73-3.50-3.27-5.91-.17-.74.09-1.60.27-2.45ZM1103.29,552.34l9.83-3.68,7.60-2.60-3.27-10.62-1.85-5.27-4.69-15.02-.95-3.06-2.32-7.65-4.07-12.98c-.52-1.67-1.07-3.50-2.11-4.67-1.47.69-2.36,1.12-3.53,1.57l-3.86,1.49-2.88,1.07-3.76,1.38c-7.21,2.66-24.31,10.15-30.92,9.92-.72-.02-2.33-.38-3.01-.66l-3.44-1.41c-3.54-1.45-6.99-2.90-10.28-4.70l-9.16-5.02-8.57-5.29-5.34-3.21c-4.18-2.51-8.04-5.68-12.77-6.81l-3.33-.80c-3.84,3.13-6.47,7.42-9.56,11.23l-9.78,12.04-6.89,8.54-2.58,3.15c-2.14,2.61-4.13,5.26-5.81,8.15-.88,1.52-.96,3.26-.05,4.62l2.97-.03-.99.86c6.21,2.32,17.99-10.97,21.93-15.29l4.20-4.62c1.18-1.30,3.95-5.17,6.30-3.40,3.78-.55,3.54-1.61,6.34.68l8.85,7.22,14.46,12.71,5.70,5.39,10.97,10.65,28.15,26.92c4.13-2.09,8.16-3.33,12.20-4.83l11.26-4.19,5.01-1.79ZM895.30,581.47c-.04,1.47,1.76,2.53,2.80,2.95,1.57.62,3.25.08,4.53-.93,5.01-3.94,9.12-8.49,12.77-13.70,1.81-2.59,3.55-5.10,5.11-7.79.90-1.55,1.10-3.18-.03-4.58-.47-.59-1.32-1.37-1.90-1.35-1.56.06-7.47,4.60-8.63,5.77l-9.24,9.34c-3.03,3.07-5.29,5.97-5.41,10.29ZM928.74,594.59c3.51-3.97,7.13-7.58,10.11-12.02,1.46-2.18,2.28-5.10,3.10-7.63.10-.30-.40-4.38-1.82-5.11-2.02-1.02-6.11,1.96-7.80,3.60-6.25,6.09-12.93,12.66-17.64,19.94-1.59,2.45-1.96,5.32-.06,7.62,3.43,4.15,11.63-3.59,14.11-6.40ZM945.37,615.36c2.71-2.92,5.30-5.57,7.58-8.58l5.33-7.03c1-1.32,1.62-3.12,2.46-4.61,1.84-3.27,1.15-7.27-1.20-7.91-1-.27-2.58.10-3.50.80-5.96,4.50-10.69,10.12-15.77,15.60-2.76,2.97-4.84,5.82-5.98,9.94-.48,1.75-.18,4.86,1.81,5.90,2.12,1.11,4.73-.48,6.32-1.80.94-.78,2.11-1.38,2.95-2.29ZM967.70,625.66c2.76-3,4.99-6.37,6.85-10.01.99-1.94,1.06-4.54-.90-5.90-1.95-1.36-9.34,6.68-11.01,8.37-3.16,3.21-5.76,6.44-7.56,10.45.45,1.05,1.17,2.15,1.89,2.55,3.04,1.69,8.45-2.99,10.73-5.46Z"/>
 <path d="M982.37,434.65l-.88,1.76.16-1.92c-.31-.39-.65-.79-.77-1.15-.17-.53.48-1.41.88-1.86.36-.41-.07-1.60-.44-2.28l-.38,2.27c-.95-.33-1.64-9.15-1.65-9.97l-.21-16.07c-.01-1.12-.11-2.19-.04-3.28l.28-4.57c.11-1.82.66-3.68,1.21-5.43l1.66.29,1.55-1.52c2.33-2.29,1.30.53,3.58-1.55.84.76,1.57,2.04,2.23,3.49.30-.71.06-1.67-.22-3.01,1,.30,2.81,1.16,3.26,2.12.56,1.23,1.48,2.72,1.76,3.94,1.19,5.23.50,10.56.26,15.88l-.27,6.11c-.10,2.25-.35,4.30-.59,6.49l-.88,7.82c-.18,1.59-.70,3.15-1.57,4.19-.69-.36-.60-.35.10-1.03-.06-.04-.80-.26-.84-.07l-.28,1.22c-1.99.76-3.99,1.68-6.15,2.89-.25-.30-.59-1.21-.73-1.77l-.21-.84c-.05-.19-.51.34-.68.47l-.13-2.63Z"/>
 <path d="M958.29,446.54c-.74.76-6.99-3.88-7.61-4.73-.21.34-1.22-.16-1.45-.48-.19-.26-.05-.70.05-1.06-.31.03-1.08-.03-1.26-.22l-4.24-4.54-6.45-8.61-4.27-6.08c-1.40-1.98-2.33-3.97-2.66-6.55l1.86-1.93-.96-.70c-.19-.14.61-.63.75-.86,1.12-1.91,3.98-2.55,5.42-1.33.26-.35.70-.93.94-1.19.28-.31,1.23.39,1.95.79l-1.27-1.38c4.33-.75,9.37,7.07,11.81,10.38l6.51,8.84c2.76,3.75,4.86,7.85,6.90,11.98l-.60,2.32-.41-.88c-.05-.11-.30-.29-.34-.17l-.34,1.11c.38.54.53.70.67.97.16.31-.57,1.39-.70,1.41l-.38-1.80-.19,2.02-.90-.30c-.19-.06-.66.53-.71.77l-.53,2.71-.72-1.38-.86.89Z"/>
 <path d="M1020.11,446.45c-1.15,1.12-3.57.68-3.60.98l.09-1.20c.03-.43.06-1.07.07-1.53.01-.99-2.20.89-2.41.44l-.36-.74c-.74.65-2.01.95-2.85.27l1.49-.49-1.61-.19c-.29-.04-.42-.75-.45-1.15l-.26-3.54c-.16-2.16,1.49-4.28,2.60-6,2.05-3.15,3.70-6.43,6.25-9.14,1.50-1.58,2.90-3.04,4.20-4.80,1.38-1.87,2.85-3.47,4.47-5.15,2.15-2.26,6.70-6.93,9.73-5.43,1.30.64.98,2.80,1.96,3.43.37.23,1.17.05,1.81-.19l.74.80c.19.20-.32.95-.26,1.21l.71,3.08,1.74-.98c-1.39,3.81-2.77,6.22-5.12,9.05s-4.29,5.86-6.92,8.44c-.67.66-1.65,1.27-2.30,2.01l-7.65,8.80-2.07,2.03Z"/>
 </g>
</svg>