<?xml version="1.0" encoding="UTF-8"?>
<svg id="Layer_1" xmlns="http://www.w3.org/2000/svg" version="1.1" viewBox="0 0 1920 1080">
  <!-- Generator: Adobe Illustrator 30.2.1, SVG Export Plug-In . SVG Version: 2.1.1 Build 1)  -->
  <path d="M239.42,631.61c-1.86-1.24-.38-3.38.77-4.37,2.24-1.94,4.55-2.91,7.65-2.93l5.95-.03,18.61.74,37.75,1.85c4.56.22,8.83,1.01,13.37,1.65,3.98.56,7.76,1.16,11.64,2.3,1.24.37,2.54.55,3.86.37l-12.9-3.92c-1.49-.45-2.33-1.15-4.02-1.53-14.72-3.34-29.37-5.41-44.37-6.69-3.75-.32-6.85-.28-10.54-.1l-13.78.69c-7.31.37-10.72,2.44-14.87-5.95l.49-.87c-.18.32-3.32-4.9-3.57-6.68-.71-5-.33-9.86.03-14.8.35-4.87-.01-9.53-.07-14.49-.02-2.19.42-4.54.47-6.73l.1-4.94.14-8.16.1-11.59v-4.38s.01-9.94.01-9.94c0-4.44-.2-8.56-.3-12.97l-.14-6.04-.04-14.69.2-9.89.66-11.13.02-6.65.11-6.48c.08-4.55,1.86-7.41,5.73-9.95,1.37-.9,2.65-2.45,4.68-2.82,2.98-.54,5.86-.21,8.85-.14l7.41.18c7.88.19,15.37,1.46,23.08,2.99l12.65,2.5,10.4,2.48c4.33,1.03,8.36,2.34,12.5,3.91,2.25.85,4.56,1.46,6.71,2.46,4.93,2.31,9.79,4.38,14.44,7.12.78.46,1.49,1.26,2.4,1.53,1.65.49,3.03,1.21,4.53,1.98,8.62,4.42,12.55,6.98,20.21,12.93,3.52,2.73,9.61,7.06,11.63,11.29l4.46-5.34c2.75-3.29,5.91-5.9,9.38-8.42,3.86-2.8,7.53-5.76,11.56-8.27l7.7-4.8c3.52-2.2,7.02-4.42,10.76-6.14l12.13-5.58,3.26-1c12.21-3.73,17.72-6.64,31.64-7.85,3.18-.28,8.74-1.76,12.99-2.13l20.2-1.76c2.96-.26,5.36-1.02,8.33.21l4.47,1.86c.48.2,1.47,1.24,1.47,1.71,0,.54-.29,1.23-.52,1.74,2.9,2.22,1.24,4.86,2.78,9.77.21.68,1.2,1.92,1.37,2.57.96,3.82.57,7.34.42,11.21l-.69,18.85-.92,24.8-.15,19.87.34,6.45.23,13.47c.63-3.14.62-6.04.9-9.05.32-3.4.18-6.59.41-10.03l.63-9.44.39-9.52.23-7.79c.14-4.57.16-8.91.53-13.45.31-3.74.3-7.37.36-11.23.06-4.23.93-8.36,1.52-12.56.55-3.97,4.72-2.98,6.51-4.41,7.43,2.31,5.55,9.34,5.5,15.9l-.04,5.8-.27,6.56-.45,13.37-.16,9.8-.66,15.59-.1,15.74-.3,7.67c-.13,3.39-.55,6.56-.41,9.94.36,8.56-.55,13.76-.53,22.49.03,8.45.61,16.58-.15,24.99-.2,2.18-1.27,4.59-1.92,6.49-.99,2.88-3.04,4.09-5.32,5.43-4.53,2.68-8.87,1.76-13.76,1.51-4.7-.24-9.53-.13-14.15.08l-15.63.72c-5.28.24-10.42.6-15.6,1.22l-14.43,1.72-19.65,2.38c-6.43.78-12.62,1.8-18.95,3.04l-5.58,1.09c-2.47.48-4.96.98-7.54,1.03-9.38,7.16-15.82,10.36-27.97,8.83-2.18-.27-3.92-.57-5.87-1.52-1.68-.82-3.39-1.51-4.9-2.65l-4.14-3.11-19.22-2.4-16.86-1.8-9.91-.78c-1.86-.15-3.55-.45-5.38-.59l-19.79-1.53c-4.33-.34-8.36-.51-12.57-.55l-21.45-.19c-3.85-.03-7.44-.11-11.31.13-.46.03-1.25-.05-1.38-.36l-.66-1.5c-1.99-.62-5.24-2.86-3.74-5.58l4.59-.47-4.54-.36ZM409.49,615.33c2.88-.8,5.14-1.93,7.73-2.87l6.95-2.53c2.28-.83,4.72-1.25,6.9-2.23,2.59-1.16,5.02-2.06,7.79-2.66,3.04-.66,7.74-2.3,10.08-2.72l16.16-2.96c4.32-.79,8.56-1.58,12.95-2.15l10.39-1.35c9.58-1.24,10.48.14,18.88-.45-.25-2.95-.17-5.7-.08-8.67l.16-5.36-.17-12.68.13-18.09.06-11.73-.19-5.72-.14-8.27c-.05-3.12.19-6.13.24-9.34l.15-10.79-.29-2.24c-.41-3.14.19-6.64.14-9.85l-.16-9.1c-.06-3.54.23-7.23-.3-10.68l-1.39-9.1c-6.69-1.55-36.34,3.01-42.1,4.75l-12.1,3.66c-3.4,1.03-6.17,2.18-9.35,3.67l-10.38,4.86c-1.29.6-2.4,1.35-3.68,1.93l-5,2.27c-1.63.74-3.24,1.62-4.65,2.73-2.28,1.81-9.59,5.56-11.14,7.01l-3.11,2.9-5.6,4.32c-1.17.91-2.29,1.35-3.28,2.47-1.51,1.73-4.17,3.24-5.19,5.36-.59,2.19-.58,5.02-.66,7.33-.17,4.77-.81,9.38-.73,14.09l.25,13.76.02,4.34-.42,20.31-.17,25.5-.2,6.89-.5,19.42-.27,6.6,6.21-4.06c3.45-2.26,12.25-7.52,16.06-8.58ZM372.63,628.82c.16-2.86.22-5.36.23-7.99v-12.72s-.05-3.56-.05-3.56l.21-18.58.02-4.32.37-18.57.1-6.9.25-4.41.15-6.84c.08-3.94.4-8.02.09-11.87-.81-9.98.24-13.2.15-22.52-8.11-10.64-20.71-15.99-25.36-19.4l-2.99-2.2-9.6-4.65-5.12-2.31-10.05-3.79c-5.25-1.98-10.25-4.02-15.63-5.65-3.91-1.19-7.71-2.5-11.74-3.28l-10.55-2.03c-2.82-.54-5.51-1.39-8.49-1.37l-12.09.05c-3.18.01-5.87.06-9.06.91-.93,8.16-.97,15.9-.77,24.08l.1,3.99.35,9.88.19,6.1v10.91c-.01,2.81.13,5.58,0,8.38l-.21,4.53c-.18,3.84.35,7.61.13,11.55l-.64,11.68-.1,31.06c0,1.74-.03,3.3.14,5.16l5.62-.05c8.13-.07,15.97,1.12,24.07,2.3,10.3,1.51,20.25,3.06,30.29,5.88l7.87,2.2,6.64,1.77,3.92,1.11c1.82.52,3.55,1.59,5.33,2.35,2.87,1.23,6.07,1.84,8.85,3.26l10.31,5.26,7.6,4.1c3.42,1.84,6.11,3.9,9.52,6.52ZM245.72,533.19l-.07,10.09c1.13,1.34.8-10.87.07-10.09ZM380.17,552.62c.52-4.45.43-8.21.01-12.05-.25,4.25-.25,8.19-.01,12.05ZM522.71,601.56l-.07-2.63c-.1-3.87-.17-7.68.15-11.46.23-2.72.3-5.23.07-8.02-.22,1.42-.45,2.93-.53,4.37l-.34,6.44c-.13,2.41-.73,9.72.73,11.31ZM432.6,627.15c2.25-.04,4.39-.37,6.67-.97,4.9-1.28,9.68-1.96,14.59-2.93l3.57-.7,11.6-1.13,11.98-1.02,10.05-.46c6.92-.32,5.87-.63,13.83-.6l6.21.02,9.16.03c.53,0,1.45-.18,1.8-.44.28-.2.52-1.12.51-1.49l-.23-13.21-2.46,7.22c-.46,1.34-.67,2.6-.88,4.28l-5.06.04c-8.9.07-25.74.61-34.14,1.77l-12.48,1.73-5.68,1.06-4.75.87-4.89.83-8.2,1.69c-2.54.52-8.42,2.02-11.19,3.43ZM282.18,606.98c-4.26-.87-14.31-2.14-17.15-1.82-.15.02.63.55.78.56l6.54.49c3.54.27,6.86.82,9.83.77ZM475.69,610.11l10.46-1.01,5.36-.47c-2.36-.22-4.83-.35-7.35-.1l-3.51.34-10.81,1.29c-4.02.48-7.85,1.23-11.69,1.94,1.93.47,3.61-.15,5.49-.4l12.05-1.6ZM255.1,614.7l-10.4-.16c1.02.91,1.97.62,3.2.55l7.21-.39Z"/>
  <g>
    <path d="M1016.71,643.57c-5.21-.3-11.29-2.95-15.52-5.81-2.69-1.81-5.39-3.36-7.82-5.47l-7.52-6.52c-1.37,2.74-3.25,5.36-5.44,7.52-.42.41-.88,1.46-1.39,1.92-2.43,2.14-4.7,4.37-7.36,6.13l-5.22,3.44c-2.64,1.74-7.83,2.56-10.97,2.33-5.22-.38-7.95-3.1-11.3-6.75-1.47-1.6-2.2-3.98-2.91-6.12-.82-1.02-4.29.34-8.07-.4-8.06-1.59-12.35-8.6-12.76-16.75-2.51,1.51-7.35.79-10.42,0-3.65-.94-7-3.11-9.23-6.17-2.98-4.1-2.32-7.19-3.55-11.37-5.93.04-10.71-3.29-14.19-7.79-2.78-3.6-3.63-7.55-3.16-12.09.24-2.27.4-4.3,1.26-6.57-1.08-1.23-2.61-1.91-4.18-2.51l-8.23-3.16-11.97-4.27-3.4-1.24-7.25-2.69c-1.54-.57-3.06-.95-4.76-1.37l-2.19-2.02c-.14-.12-.42-.52-.51-.65s.47-.11.87-.13l-.2-.97c-.05-.24-.99-.13-1.16-.3-2.89-2.83-1.17-10.51-.12-14.43,1.13-4.23,2.05-8.39,3.51-12.6l4.06-11.71,3.51-9.26.53-1.83c.55-1.9,1.09-3.58,1.74-5.44l1.68-4.82c.46-1.32.72-2.62,1.24-3.86l2.73-6.53c2.14-5.11,2.15-7.87,6.65-12.78,2.02-2.2,4.29-.6,7.5-1.43l-2.14-.91c2.09-.44,3.92,0,5.98.65l25.57,8.06c2.51.79,4.77,1.44,7.34,1.97l13.24,2.77,3.78-1.71c4.41-2,8.65-4.13,12.98-6.38l8.94-4.64,14.7-7.81c5.19-2.76,10.19-5.39,16.25-5.87s11.94,1.41,16.88,5.06c6.27-2.57,13.18-1.02,19.2,2.65l9.63,5.87,5.33,2.94,12.03,6.84c1.75,1,3.44,2.1,5.28,2.9s3.58,1.6,5.45,2.54c1.25.62,2.91,2.32,4.47,2.16,3.49-.39,6.51-2.21,9.75-3.36l9-3.2,3.98-1.54,8.09-3.31c6.62-2.71,11.09-4.69,18.16-6.33.9.1,2.67.44,3.48.63l1.63,2.45c1.24-.06,2.25.39,3,1.28l.38.45c.07.08.02.43-.08.44l-.97.09c2.53,1.39,3.35,3.62,4.19,6.29l4.72,14.86,2.24,7.78c1.32,4.6,2.74,8.9,4.07,13.48l2.01,6.93,4.22,14.12c.76,2.55,1.22,4.94,1.91,7.5l1.41,5.25c.04.14.12.63.14.75.03.17-.55.32-.64.18l-.42-.71-.14,1.26c-.03.3.56.46,1.17.85-.01.84-.43,2.1-.9,3.06l-.32.64c-.04.09-.29.22-.33.13l-.38-.78c-.41.68-.85,1.25-1.58,1.94l-.93,2.11-12.72,5.05c-2.31.92-4.84,1.29-7.08,2.42-1.47.74-3.17.85-4.59,1.38l-3.69,1.38-14.07,4.95-2.92,1.09-1.57,1.6c2.73,6.2,2.37,17.08-2.27,22.41-.93,1.07-1.14,1-2.34,1.6,2.81-1.38-5.82,8.02-16.92,6.09-.04,2.81-.42,5.47-1.69,7.75-.75,1.35-1.42,2.88-2.53,4.01-4.29,4.35-8.36,6.36-14.48,6.8-1.69.12-3.47-.49-5.35-.62-.04,6.84-3.6,12.21-9.33,15.45-2.72,1.53-5.71,2.69-9,3.05-1.76.19-3.75-.14-5.65-.25ZM987.17,577.21l.71-3.33c.36.36.67.79.76.64l.37-.63c.4-.68,1.52-2.2,2.35-1.9,1.5.53,2.92.9,4.46.98l14.18,12.7,4.94,4.7,4.48,4.13,4.3,3.48,2.84,2.32c3.39,2.76,6.66,5.41,10.29,7.93,2.01,1.4,4.63,2.14,7.11,2.24,2.62.11,5.52-1.65,5.7-4.37.2-2.99-1.61-5.76-3.69-7.76l-8.96-8.59c-1.22-1.17-2.79-2.21-4.09-3.38l-7.55-6.78c-1.6-1.44-3.15-3.13-4.52-4.62-2.02-1.49-5.38-4.62-7.39-6.72l-7.85-8.16c-1.63-1.7-1.8-3.75-1.85-5.83s.45-3.81,2.32-4.21c-.06-.66,1.2-1.3,1.92-1.38l.18-.8c.07-.32,4.86,1.06,7.22,3.14l10.24,9.01,10.66,9.73,13.56,12.23c3.21,2.9,6.29,5.57,9.95,7.92,2.93,1.88,9.58,3.93,12.01.09,1.21-3.15.28-6.87-1.91-9.44-3.07-3.61-6.15-6.88-9.53-10.18l-7.98-7.78-6.23-6.27-8.12-8.03-14.15-13.4c-3.55-3.36-6.82-6.62-10.59-9.75l-10.78-8.96-4.37,5.49c-3.98,5-9.19,9.22-14.79,12.37-2.17,1.22-4.32,2.66-6.74,3.24-4.88,1.18-7.95,2.24-12.78.91-5.07-1.39-9.08-4.25-12.12-8.39-.43-.58-.57-1.85-.87-2.38-2.42-3.81-1.99-9.36-.15-13.53,1-2.28,1.89-4.67,3.27-6.71l6.77-10.02c1.31-1.95,2.69-3.76,4.14-5.57l9.4-11.72c1.91-2.38,3.95-4.23,5.81-7-3.26.86-5.99,1.69-8.71,3.01l-6.3,3.07-9.9,5.06-2.85,1.53-5.83,2.74c-1.5.7-2.67,1.64-4.24,2.18-1.28.44-2.39,1.26-3.62,1.77l-6.56,2.74c-1.31.55-2.45.99-3.74,1.33l-3.38.88c-1.11.29-2.4.72-3.47.62-1.2-.11-2.69.01-3.75-.2l-6.52-1.32c-1.01-.21-3.55-1.29-5.23-1.77l-7.6-2.17-3.9-1.03-5.34-1.62-11.38-3.71c-1.38-.45-2.59-1.21-4.4-1.38-1.02,1.33-1.15,3.23-1.72,5.11l-2.17,7.21c-.07.22-.76.56-.65.7.08.1.33.42.3.39l-1.17.91c-.22.17.05.81.11,1.12l-1.74,5.71-2.49,7.61-1.25,4.03c-1,3.23-2.19,6.28-3.31,9.47l-1.39,3.97-4.33,13c.68.79,1.82,1.22,2.82,1.59l14.43,5.33c7.07,2.61,13.94,5,20.81,8.56l11.75-11.58c5.95-5.86,16.14-10.63,23.82-4.52,4,3.19,6.3,7.51,6.77,12.54,3.3-1.36,6.26-1.21,9.36-.35,8.81,2.42,12.62,9.5,13,18.57,7.65-1.41,12.42.53,16.91,6.67,3.14,4.3,3.34,9.83,2,14.99,2.91,1.21,6.14,2.15,8.14,4.47.82.95,1.58,1.43,2.46,2.28l11.08,10.68,3.81,3.37c4.94,4.37,18.03,17.08,24.35,9.31l.39-4.64c-1.73-3.51-4.2-6.2-7.13-8.69-2.35-1.99-4.43-4.06-6.68-6.19l-3.7-3.52c-6-5.7-12.04-11.14-17.76-17.15-1.66-1.75-2.73-3.5-3.27-5.91-.17-.74.09-1.6.27-2.45ZM1103.29,552.34l9.83-3.68,7.6-2.6-3.27-10.62-1.85-5.27-4.69-15.02-.95-3.06-2.32-7.65-4.07-12.98c-.52-1.67-1.07-3.5-2.11-4.67-1.47.69-2.36,1.12-3.53,1.57l-3.86,1.49-2.88,1.07-3.76,1.38c-7.21,2.66-24.31,10.15-30.92,9.92-.72-.02-2.33-.38-3.01-.66l-3.44-1.41c-3.54-1.45-6.99-2.9-10.28-4.7l-9.16-5.02-8.57-5.29-5.34-3.21c-4.18-2.51-8.04-5.68-12.77-6.81l-3.33-.8c-3.84,3.13-6.47,7.42-9.56,11.23l-9.78,12.04-6.89,8.54-2.58,3.15c-2.14,2.61-4.13,5.26-5.81,8.15-.88,1.52-.96,3.26-.05,4.62l2.97-.03-.99.86c6.21,2.32,17.99-10.97,21.93-15.29l4.2-4.62c1.18-1.3,3.95-5.17,6.3-3.4,3.78-.55,3.54-1.61,6.34.68l8.85,7.22,14.46,12.71,5.7,5.39,10.97,10.65,28.15,26.92c4.13-2.09,8.16-3.33,12.2-4.83l11.26-4.19,5.01-1.79ZM895.3,581.47c-.04,1.47,1.76,2.53,2.8,2.95,1.57.62,3.25.08,4.53-.93,5.01-3.94,9.12-8.49,12.77-13.7,1.81-2.59,3.55-5.1,5.11-7.79.9-1.55,1.1-3.18-.03-4.58-.47-.59-1.32-1.37-1.9-1.35-1.56.06-7.47,4.6-8.63,5.77l-9.24,9.34c-3.03,3.07-5.29,5.97-5.41,10.29ZM928.74,594.59c3.51-3.97,7.13-7.58,10.11-12.02,1.46-2.18,2.28-5.1,3.1-7.63.1-.3-.4-4.38-1.82-5.11-2.02-1.02-6.11,1.96-7.8,3.6-6.25,6.09-12.93,12.66-17.64,19.94-1.59,2.45-1.96,5.32-.06,7.62,3.43,4.15,11.63-3.59,14.11-6.4ZM945.37,615.36c2.71-2.92,5.3-5.57,7.58-8.58l5.33-7.03c1-1.32,1.62-3.12,2.46-4.61,1.84-3.27,1.15-7.27-1.2-7.91-1-.27-2.58.1-3.5.8-5.96,4.5-10.69,10.12-15.77,15.6-2.76,2.97-4.84,5.82-5.98,9.94-.48,1.75-.18,4.86,1.81,5.9,2.12,1.11,4.73-.48,6.32-1.8.94-.78,2.11-1.38,2.95-2.29ZM967.7,625.66c2.76-3,4.99-6.37,6.85-10.01.99-1.94,1.06-4.54-.9-5.9-1.95-1.36-9.34,6.68-11.01,8.37-3.16,3.21-5.76,6.44-7.56,10.45.45,1.05,1.17,2.15,1.89,2.55,3.04,1.69,8.45-2.99,10.73-5.46Z"/>
    <path d="M982.37,434.65l-.88,1.76.16-1.92c-.31-.39-.65-.79-.77-1.15-.17-.53.48-1.41.88-1.86.36-.41-.07-1.6-.44-2.28l-.38,2.27c-.95-.33-1.64-9.15-1.65-9.97l-.21-16.07c-.01-1.12-.11-2.19-.04-3.28l.28-4.57c.11-1.82.66-3.68,1.21-5.43l1.66.29,1.55-1.52c2.33-2.29,1.3.53,3.58-1.55.84.76,1.57,2.04,2.23,3.49.3-.71.06-1.67-.22-3.01,1,.3,2.81,1.16,3.26,2.12.56,1.23,1.48,2.72,1.76,3.94,1.19,5.23.5,10.56.26,15.88l-.27,6.11c-.1,2.25-.35,4.3-.59,6.49l-.88,7.82c-.18,1.59-.7,3.15-1.57,4.19-.69-.36-.6-.35.1-1.03-.06-.04-.8-.26-.84-.07l-.28,1.22c-1.99.76-3.99,1.68-6.15,2.89-.25-.3-.59-1.21-.73-1.77l-.21-.84c-.05-.19-.51.34-.68.47l-.13-2.63Z"/>
    <path d="M958.29,446.54c-.74.76-6.99-3.88-7.61-4.73-.21.34-1.22-.16-1.45-.48-.19-.26-.05-.7.05-1.06-.31.03-1.08-.03-1.26-.22l-4.24-4.54-6.45-8.61-4.27-6.08c-1.4-1.98-2.33-3.97-2.66-6.55l1.86-1.93-.96-.7c-.19-.14.61-.63.75-.86,1.12-1.91,3.98-2.55,5.42-1.33.26-.35.7-.93.94-1.19.28-.31,1.23.39,1.95.79l-1.27-1.38c4.33-.75,9.37,7.07,11.81,10.38l6.51,8.84c2.76,3.75,4.86,7.85,6.9,11.98l-.6,2.32-.41-.88c-.05-.11-.3-.29-.34-.17l-.34,1.11c.38.54.53.7.67.97.16.31-.57,1.39-.7,1.41l-.38-1.8-.19,2.02-.9-.3c-.19-.06-.66.53-.71.77l-.53,2.71-.72-1.38-.86.89Z"/>
    <path d="M1020.11,446.45c-1.15,1.12-3.57.68-3.6.98l.09-1.2c.03-.43.06-1.07.07-1.53.01-.99-2.2.89-2.41.44l-.36-.74c-.74.65-2.01.95-2.85.27l1.49-.49-1.61-.19c-.29-.04-.42-.75-.45-1.15l-.26-3.54c-.16-2.16,1.49-4.28,2.6-6,2.05-3.15,3.7-6.43,6.25-9.14,1.5-1.58,2.9-3.04,4.2-4.8,1.38-1.87,2.85-3.47,4.47-5.15,2.15-2.26,6.7-6.93,9.73-5.43,1.3.64.98,2.8,1.96,3.43.37.23,1.17.05,1.81-.19l.74.8c.19.2-.32.95-.26,1.21l.71,3.08,1.74-.98c-1.39,3.81-2.77,6.22-5.12,9.05s-4.29,5.86-6.92,8.44c-.67.66-1.65,1.27-2.3,2.01l-7.65,8.8-2.07,2.03Z"/>
  </g>
  <g>
    <path d="M1542.4,632.99v-1.18c0-.85-1.13-.61-4.18-2.37-2.34-1.35-4.79-2.62-7.09-4.25l-11.43-8.13c-1.2-.85-2.31-1.89-3.59-2.59s-2.62-1.39-3.8-2.12l-5.58-3.41c-4.11-2.51-8.88-5.95-12.75-8.6-.35-.24-.41-1.83-.83-1.92l-1.62-.35.42-1.27c.07-.21-1.05.04-.7-.07-.19-.82-.44-1.64-.73-2.49l1.38-3.91,1.37-4.1c1.64-4.9,4.65-10.92,7.03-14.88.18-.29-.01-1.33-.19-1.27l-.78.27c.35-1.96-3.46-4.59-4.41-6.67-.1-.21-.77.28-1.01.31l-8.97,1.36c-2.32.35-4.41.91-6.73,1.21l-7.94,1c-1.88.24-4.02.52-5.87.35-1.32-.12-1.8-.35-3,.23-1.5.73-3.82-.21-5.31.04-2.43.41-4.26.66-6.6-.52-1.67-.84-3.1-1.93-3.93-3.74l.94-2.13c-.87-1.27-1.19-2.59-.7-3.93l1.9-5.27,4.25-11.7,3.39-7.27c.96-2.05,1.63-3.99,2.66-6.02l4.03-7.92c1.47-2.89,2.79-5.87,4.46-8.65l2.94-4.89c1.25-2.08,2.75-4.26,4.36-6.08l2.47-2.8c2.82-3.19,7.33-4,11.24-5.12,1.94-.56,3.73-1.27,5.74-1.66,5.51-1.06,10.97-1.89,16.58-2.36l5.96-.5,6.53-.45c1.68-.11,1.31-1.44,1.92-2.32l12.12-17.62c2-2.91,3.94-5.74,6.32-8.31l13.61-14.69c2.3-2.48,4.62-4.62,7.13-6.93,1.47-1.36,2.81-3.11,4.41-4.27l5.71-4.13c1.47-1.06,3.38-1.88,4.49-3.38.97-1.31,2.46-2.49,3.82-2.77l.11-.68c.02-.15.23-.55.35-.44l.58.51c1.27-2.04,1.42-1.65,4.76-3.71,2.09-1.29,4.58-2.23,6.49-3.78,2.46-2,4.96-3.3,7.71-4.84,5.55-3.1,10.33-5.92,16.52-7.92,1.47-.48,3.11-1.6,4.52-1.89l4.5-.91c.89-.18,2.16-.62,2.94-.7,2.06-.2,3.68-.63,5.53-1.4l2.1-.88.44.12c.14.04.64.11.55-.02l-.59-.86,2.15-.4-.04,1.04,4.7-1.59-1.57-1.01c3.63,1.37,2.71-2.6,6.05-.45l-.18-.86c-.04-.19.49-.29.78-.35l10.53-2.14c3.03-.62,6.31-.58,9.29.3l4.35,1.29-1.88.5c.61.05,1.57-.08,2.38-.17,3.8-.39,8.35,8.66,9.05,12.88l1.1,6.69c.25,1.51.82,2.72.98,4.19.99,8.67.23,10.96.35,19.31.05,3.47-.65,7.57-1.06,11.02-.05.44.36,1.64.37,1.7-.47.38-.81.93-.9,1.52l-1.18,8.34c-.21,1.48-1.11,3.54-.42,4.48,1.4,1.72.29,4.02-.72,5.85.45.74.26,1.92-.01,2.87l.04,2.61c-.77,0-1.39-.06-1.44.18l-.21,1.08c-.04.23.89.14.82.18l-.31,2.75c-1.93.93-1.79,2.6-1.57,5.07-.02.03-.53-.03-.62.2l-.43,1.11.86-.39c.1-.04-.04.61-.15.64l-.52.14c-2.74,4.26-.14,7.21-1.66,8.22-.89.6-1.29,1.11-1.53,2.06l1.37-1.4c-.38,1.11-1.06,1.84-1.97,2.86l1.08-.31-3.34,9.33c-.52,1.45-1.09,2.52-1.82,3.71l-1.52,2.48,1.15-.82c-.84,1.49-1.28,2.54-1.9,3.87l-4.24,9.04-2.09,5.43c-.12.3-1.54-.61-1.13.03.07.1.45.59.39.7l-1.51,3.01c-.66,1.32-1.41,2.57-2.18,3.82l-3.86,6.22-6.45,10.11c-1.72,2.69-3.27,5.3-5.19,7.74l-5.9,7.49c-.79,1.4.84,3.22,1.34,4.52,1.81,4.7,2.96,9.38,4.1,14.26l1.93,8.33,1.41,6.96.54,3.62c.48,3.25,1.29,6.64-.32,9.72-1.83,3.52-2.89,4.63-5.57,7.58l-5.47,6.01-6.03,6.96c-.92,1.06-1.9,2.24-2.82,3.19l-4.88,5.04-3.05,3.15-6.05,5.9c-1.4,1.36-2.74,2.63-4.28,3.8l-3.27,2.48c-2.48,1.88-4.77,3.36-7.51,4.48-1.76.72-2.73.69-4.4.46-1.48-.21-2.95-.13-4.35-.89-1.48-.8-1.67-2.38-2.13-4.09-1.12-4.14-2.63-8.13-3.31-12.33l-1.01-6.25-3.7-17.13.53-2.54c-.93-.39-1.92-.18-2.76.36l-.72-1.12c-.18-.28-1.03.14-1.6.42,0,.02-.1-.45-.12-.55-.02-.09,0-.08-.73.39l-2-1.34c-.57-.39-1.29-.6-1.96-.68l.28-.51c.06-.1-.16-.44-.25-.37l-.89.71c0,.14-.01-.36-.03-1.1-2.45,2.46-5.45,4.68-7.86,7.46-2.82,3.26-5.15,6.62-8.38,9.49-1.06.94-2.41.89-3.75.59-1.44-.33-2.99.1-3.98-1.58l2.74.72c-.76-.78-1.73-1.32-2.56-1.64l-1.37.98ZM1643.37,397.17c1.76-.08,2.88-.66,4.19-1.2l8.51-2.2c1.12-.29,2.3-.45,3.05-1.42-3.06.54-5.69,1.17-8.42,2.02l-3.25,1.01c-1.43.44-2.82.82-4.08,1.8ZM1639.37,440.92l7.84,4.84,5.92,4.13c3.7,2.58,7.93,4.62,12.21,8.61l.73-7.15c.24-2.33.25-4.56.64-6.89.63-3.78.82-7.39,1.06-11.19.38-5.91.2-11.59-.56-17.46-.29-2.23-.17-4.68-1.25-6.69-1.29-2.4-4.89,1.4-7.33-.25-.58.57-1.59.86-2.75,1.12-1.96.44-3.89,1.1-5.9,1.29-3.21.31-6.23,2.17-9.37,3.4l-6.49,2.54c-2.51.98-16.82,5.84-15.9,8.18.16.4.73,1.06,1.17,1.35l6.1,3.96,4.29,2.95c3.29,2.26,6.43,5.32,9.6,7.28ZM1533.74,505.53l-5.48,10.6-5.44,10.46c-1.03,1.98-1.91,3.53-2.43,5.65-.71,2.88-2.16,5.57-3.2,8.39l-5.38,14.49c2.77,2.24,5.09,4.2,7.8,6.01l9.25,6.16,5.49,3.32c3.97,2.4,7.57,4.85,11.41,7.49l20.75,14.3,3.81,2.43,6.81,4.47c6.46-4.88,12.17-10.56,18.18-16.12l5.75-5.32c1.26-1.17,2.13-2.67,3.33-3.96,10.79-11.47,21.14-23.01,29.63-36.28,4.31-6.74,8.36-13.22,11.86-20.31,2.74-5.54,5.33-10.87,7.56-16.65l4.08-10.56,1.73-5.41c.72-2.27,1.7-4.47,2.28-6.76-5.77-1.87-12.86-7.02-17.74-10.48-2.77-1.97-5.79-3.69-8.8-5.4-4.35-2.48-7.54-5.87-11.5-8.79l-15.17-11.16-9.75-7.71-4.18,3.43c-4.03,3.31-7.88,5.07-12.19,8.95l-4.12,3.71.29-1.47-2.34,2.49c-.28.3-.78.88-.63,1.15l.44.81-.83.54c-.11.07-.14-.57-.25-1.07l-4.74,5.58,1.62-.94c-1.28,2.09-2.86,4.46-5.54,5.08l1.07-2.27c-1.76,1.9-3.26,3.66-4.85,5.93l2.67-2.34-2.48,3.41c-4.64,6.39-2.52,1.05-5.26,4.55l-4.25,5.43-2.63,3.84-4.27,5.53c-.11.15.33,1.37.18,1.26s-1.05-.31-1.16-.15l-3.13,4.3c1.3-.49,1.39-1.97,3.02-2.57l-6.31,8.92-.54-.49c-.08-.07-.26.34-.25.46.14,2.58-1.89,2.7-4.15,7.09ZM1601.34,603.5l-1.93,2.08c-1.29,1.39-3.29,2.42-4.32,3.94-.65.95-1.62,1.8-2.6,2.79.05.69.62,1.81,1.02,2.73.69,1.59.68,3.73,1.15,5.42l2.51,9.07,2.21,7.98c10.14-8.99,19.59-18.49,28.46-28.57-1.74-5.32-.48-3.04-1.13-6.9l-1.85-11.13-1.89-10.13s-.44-.09-.5.08l-.29.87c-.96.73-2.15,2.24-2.75,3.42-.59.36-1.91,1.03-2.35,1.58l-3.89,4.95c-.44,0-1.46-.11-1.45.18l.08,1.2-1.07-.35c.1.66.22,1.22-.03,1.33l-.97.43-1.92,2.3-1.96,2.31-.68.97c-.14.2-.7.22-.91.28-.63,2.46.3-.33-2.95,3.18ZM1479.71,546.93l8.3-1.06,2.82-.32c1.55-.17,3.24-.22,4.52-.14l3.75-10.12c1.36-3.68,2.88-7.21,4.5-10.78l1.62-3.57,1.94-4.39,4.59-9.58-.86-.98c-.15-.17-.87.03-.85.25.02.17.1.78.05.45l-2.66.34-2.53.38c-3.04.45-5.72,1.42-8.04,1.65-3.67.36-7.15.79-10.43,2.68l-7.4,14.8-10.18,21.54c3.94-.33,7.14-.68,10.86-1.15ZM1536.25,574.23c-2.95-2.4-5.86-4.42-8.95-6.2,2.95,2.4,5.86,4.42,8.95,6.2ZM1524.38,598.38c2.76,1.88,5.8,3.32,8.39,5.43,1.66,1.36,3.19,2.85,4.89,4.05l4.99,3.51,4.56,3.17,6.01-7.01-12.66-8.73c-1.31-.9-2.25-1.69-3.46-2.96-.37-.73-.32-.41-.13.47l-9.56-6.56c-3.11-2.13-6.19-4.1-9.15-6.41l-4.24-3.3-1.54,2.41c-1.01,1.58-2.02,3.6-2.89,5.37.31.74,1.32,1.37,2,1.83l12.81,8.73Z"/>
    <path d="M1472.85,675.94l-.78.55c-.12.09-.52-.08-.45-.21l.33-.59c.1-.19.27-.49.26-.45s-.31-.4-.39-.52-.38.42-.44.56l-.28,2.01c-.88-1.05-.37-2.04-.47-3.2-.34-4.02,2.01-7.56,3.86-11.34l-.31-1.13c-.09-.34,1.1-.76,1.57-.97l-1.07-1.2c.6.05,1.38.24,1.38-.03v-1.22c0-.11-.2-.61-.23-.72s.1-.15.2-.13l.98.21-.68-1.01,2.62-5.24,3.31-5.67c3.73-6.39,10.16-16.38,17.05-20.13.84-.46,8.32-2.85,7.54-.88l-.45,1.15,1.83-1.23-.38,2.12,1.49-1.07-.5,2.24,1.35-1.03c1.22,3.62,2.11,3.56.43,8.24-2.74,7.62-3.59,8.93-6.63,15-.75,1.49-1.39,3.45-2.38,4.79-2.68,3.62-5.08,7.04-7.56,10.76-1.07,1.61-2.54,3.15-3.93,4.52-4.68,4.6-4.81,6.28-11.49,8.68-1.22.44,1.58,2.8-6.31,2.11.42-.93,1.01-2.03.54-2.29-.12-.07-.43.33-.53.43s-.53-.16-.65-.27c-.14-.12.24-.5.31-.67l.87-2.17Z"/>
    <path d="M1516.91,683.45c-1.66,1.01-3.96-.26-3.98.05l.08-.94.06-.67c.01-.17-.58-.1-.69.03l-.62.71.24-1.57c-1.14-3.07.05-9.91.83-13.19l.49-2.04c.31-1.31.73-2.66,1.21-4.12l1.1-3.32c1.01-3.06,1.65-6.13,2.45-9.29.26-1.02.24-1.91.28-2.99.1-2.72,1.37-5.93,3.49-7.91,1.01-.94,2.77-1.69,4.05-2.22,2.32-.96,6.25,2.2,6.91,3.24l3.18,4.94-1.24-.56.68,2.22.83-.04c.81-.04.65,3.27.21,5.19l-1.71,7.6c-.35,1.57-.86,3.04-1.44,4.52l-2.68,6.89c-1.14,2.91-1.88,5.6-3.99,8.13-1.94,2.32-3.97,4.35-6.82,5.09.11.68.19.98.05.86l-.83-.66c-.14-.11.11-.28.43-.8-.74,0-1.64.3-2.57.87Z"/>
    <path d="M1455.83,631.71l-.47-2c.48-.75.58-.81.61.35l1.4-2.1c.07-.11-.5-.7-.55-.82-.05-.13.02-.2.14-.2.14,0,.94.28,1.02.17l2.29-3.09-2.43,1.91c.59-.83,1.38-2.04,2.1-2.72l3.72-3.51c4.78-4.51,1.73-2.8,8.28-6.38,2.63-1.44,5.38-2.01,8.18-3.07l3.45-1.31c1.67-.64,10.58-2.61,12.59.16,1.46,2.02,1.81,5.47.56,7.7s-3.74,3.78-5.99,4.85c-3.9,1.86-7.49,3.69-11.21,5.89-1.28.75-2.62,1.18-4.03,1.7-1.27.46-2.64,2.08-3.86,2.45-4.22,1.29-5.72,3.68-8.94,4.54l-5.73,1.53-1.79-1.47,1.53.1-2.51-2.32,1.14.29.1-2.39c-1-.79-.83-.95.41-.25Z"/>
    <path d="M1576.5,510.21c-1.47-2.8-3.35-5.08-3.76-8.17l-.85-6.43c-.87-6.53,3.13-15.76,7.43-20.14,2.25-2.29,4.79-4.58,7.45-6.37l3.84-2.58c2.72-1.83,5.95-2.73,9.25-3.21,2.24-.33,4.62.56,6.8.89,1.11.16,2.2.32,3.25.73l6,2.33c2.04.79,3.74,1.48,5.43,2.92,6.8,5.79,12.31,16.04,12.34,25.18-3.45,4.79,1.65,3.59-3.43,13.25-4.78,9.09-13.56,14.44-23.45,16.74l-3.11.72c-5.44,1.27-11.32-.9-15.85-3.42-5.14-2.86-8.56-7.12-11.34-12.44ZM1588.96,493.17c-.56,4.96,1.58,10.92,6.15,13.57,6.49,3.76,15.05,1.45,19.45-4.15,4.11-5.23,4.39-11.57.57-16.96-1.4-1.97-4.06-4.41-6.65-4.78-2.98-.43-6.12-.25-8.87-.26l-4.03,2.3c-1.88,1.07-3.51,2.7-4.17,4.45-.98,2.59-1.81.34-2.43,5.83Z"/>
  </g>
</svg>